<svg xmlns="http://www.w3.org/2000/svg" version="1.1" xmlns:xlink="http://www.w3.org/1999/xlink" width="512" height="512" x="0" y="0" viewBox="0 0 512.002 512.002" style="enable-background:new 0 0 512 512" xml:space="preserve" class=""><g><path d="M503.073 44.629 0 134.695l77.085 332.678 434.917-79.517z" style="" fill="#0070c5" data-original="#0070c5" class=""></path><path d="m23.366 147.626 67.237 297.858 405.739-76.524-10.161-289.907z" style="opacity:0.2;" fill="#ffffff" data-original="#ffffff"></path><path d="M312.623 189.849h122.745v15.799H312.623z" style="" transform="rotate(-9.177 373.859 197.73)" fill="#000355" data-original="#000355"></path><path d="M318.536 220.937h160.172v15.799H318.536z" style="" transform="rotate(-9.62 398.732 228.89)" fill="#000355" data-original="#000355"></path><path d="M327.414 292.997h103.237v15.8H327.414z" style="" transform="rotate(-9.846 379.087 300.931)" fill="#000355" data-original="#000355"></path><path d="M333.656 330.238h101.786v15.799H333.656z" style="" transform="rotate(-10.539 384.565 338.151)" fill="#000355" data-original="#000355"></path><path d="M324.228 171.245c-.903.262-1.841.55-2.807.865-.97.312-1.843.595-2.619.852-.776.256-1.196.411-1.262.459.139-1.602.24-3.376.314-5.316.073-1.938.139-3.97.194-6.091.058-2.121.092-4.264.102-6.432.014-2.165.027-4.258.051-6.28.025-4.706.012-9.526-.047-14.47l8.039-2.9c-.023 4.924-.061 9.755-.115 14.499-.021 2.023-.037 4.116-.049 6.283-.012 2.168-.007 4.314.007 6.438.019 2.126.025 4.189.019 6.19-.007 2.001-.005 3.808.01 5.42-.32.059-.932.223-1.837.483zM350.712 145.149a35.386 35.386 0 0 1-1.064 6.586 33.98 33.98 0 0 1-2.425 6.514 27.156 27.156 0 0 1-3.83 5.791 24.059 24.059 0 0 1-5.179 4.475c-1.947 1.249-4.107 2.099-6.482 2.548-.494.095-.998.161-1.501.201a38.58 38.58 0 0 1-1.524.097c.032-5.071.068-10.012.11-14.825-.017-2.016-.027-4.115-.037-6.296a485.205 485.205 0 0 0-.069-6.454c-.032-2.121-.059-4.152-.078-6.094-.019-1.94-.067-3.693-.144-5.26a211.08 211.08 0 0 1 4.473-1.67 30.627 30.627 0 0 1 4.71-1.279c1.912-.363 3.592-.368 5.033-.019 1.443.355 2.68.98 3.715 1.886 1.035.904 1.88 2.029 2.536 3.371a17.048 17.048 0 0 1 1.441 4.405c.349 1.843.453 3.85.315 6.023zm-13.724-1.554c-.062 1.99-.123 4.002-.178 6.029a342.535 342.535 0 0 0-.118 6.355c-.02 2.206.009 4.602.097 7.189.742-.724 1.421-1.651 2.033-2.778.612-1.124 1.15-2.393 1.619-3.802a39.382 39.382 0 0 0 1.174-4.406c.316-1.526.559-3.003.729-4.431.169-1.428.259-2.746.269-3.958.009-1.212-.07-2.244-.23-3.094-.247-1.31-.806-2.268-1.672-2.874-.869-.607-2.081-.761-3.639-.467.006 2.164-.021 4.242-.084 6.237zM380.931 154.89c-.772 1.635-1.645 3.043-2.61 4.237-.965 1.193-1.991 2.131-3.072 2.81-1.081.684-2.171 1.129-3.27 1.337-1.095.208-2.143.15-3.142-.175-.998-.324-1.927-.92-2.786-1.784-.864-.864-1.636-1.983-2.317-3.361-.681-1.373-1.207-3.035-1.577-4.985a36.524 36.524 0 0 1-.485-10.118c.308-3.417 1.049-6.572 2.223-9.475 1.176-2.902 2.758-5.355 4.744-7.363 1.984-2.011 4.359-3.276 7.122-3.8a5.914 5.914 0 0 1 2.546.068 6.126 6.126 0 0 1 2.301 1.103c.686.53 1.286 1.225 1.799 2.083.509.857.873 1.852 1.086 2.985l.127.663c.044.233.072.475.083.729l-6.608 3.177c-.594-.806-1.174-1.154-1.74-1.046-.565.107-1.097.549-1.594 1.319-.496.774-.944 1.742-1.351 2.9a36.906 36.906 0 0 0-1.091 3.838 44.295 44.295 0 0 0-.746 4.188 42.058 42.058 0 0 0-.325 3.941c-.042 1.238.009 2.226.148 2.97.217 1.136.518 1.905.905 2.308.389.405.832.559 1.329.464.39-.074.801-.307 1.242-.705a6.098 6.098 0 0 0 1.157-1.43 10.3 10.3 0 0 0 .864-1.841c.24-.67.374-1.319.401-1.947l6.521 1.297c-.485 2.11-1.113 3.981-1.884 5.613zM400.381 157.176c-1.03.381-1.957.723-2.779 1.024-.08-1.195-.156-2.374-.23-3.537a212.914 212.914 0 0 0-.27-3.031 246.11 246.11 0 0 1-.245-2.593l-4.622.875-.677 8.054c-.758.254-1.656.544-2.695.868-1.04.326-2.01.628-2.913.91-1.104.356-2.192.708-3.265 1.059.525-4.979 1.045-9.887 1.56-14.718.206-2.019.421-4.13.643-6.339.224-2.207.45-4.406.679-6.595.227-2.19.443-4.297.646-6.316.204-2.02.37-3.868.49-5.544 2.377-.63 4.791-1.31 7.239-2.029a95.855 95.855 0 0 0 7.115-2.394c.108 1.152.261 2.583.457 4.288.192 1.706.425 3.561.693 5.566.272 2.004.557 4.095.858 6.276.303 2.183.602 4.328.89 6.436.749 4.925 1.536 10.151 2.363 15.68a49.012 49.012 0 0 1-3.104 1.029c-.861.31-1.806.657-2.833 1.031zm-7.877-12.815c.141-.026.398-.084.765-.174.367-.088.755-.178 1.159-.274.404-.096.781-.184 1.13-.269.351-.083.596-.158.73-.222a11.941 11.941 0 0 1-.124-1.104 90.408 90.408 0 0 0-.174-1.784c-.071-.665-.146-1.393-.224-2.188-.074-.792-.148-1.565-.217-2.325a254.029 254.029 0 0 1-.578-5.945l-.557-4.683-.787.204-.357 4.801-.766 13.963zM407.089 156.566c.065-4.889.111-9.669.146-14.335a310.623 310.623 0 0 1-.071-6.18c0-2.146-.028-4.268-.076-6.371-.049-2.1-.104-4.125-.159-6.076-.06-1.953-.148-3.725-.266-5.318 1.896-1.022 3.989-1.901 6.267-2.646a55.567 55.567 0 0 1 6.877-1.77c1.381-.262 2.553-.318 3.518-.171.963.148 1.758.464 2.383.953a5.197 5.197 0 0 1 1.475 1.837c.36.739.631 1.587.812 2.543.269 1.416.284 2.854.047 4.312a17.88 17.88 0 0 1-1.26 4.256 20.327 20.327 0 0 1-2.233 3.891 15.843 15.843 0 0 1-3.013 3.128 453.343 453.343 0 0 1 5.882 8.683 314.676 314.676 0 0 0 3.186 4.899l-7.692 4.429a282.167 282.167 0 0 1-3.221-6.543c-.418-.84-.838-1.705-1.263-2.595a294.52 294.52 0 0 1-1.192-2.526 66.796 66.796 0 0 1-.949-2.105 13.25 13.25 0 0 1-.548-1.435l-.651.341.014 4.292c.01 1.686.033 3.313.074 4.884.023 1.868.056 3.785.1 5.76l-8.187 3.863zm8.117-25.424c.661-.196 1.431-.638 2.311-1.318.88-.682 1.697-1.45 2.453-2.31a16.02 16.02 0 0 0 1.876-2.584c.498-.864.692-1.578.584-2.146-.074-.388-.256-.677-.548-.861-.291-.181-.669-.295-1.136-.336a7.67 7.67 0 0 0-1.509.039 27.88 27.88 0 0 0-1.656.259c-.388.074-.785.16-1.192.252-.401.096-.764.174-1.081.234l-.102 8.771zM452.674 125.835a35.734 35.734 0 0 1-1.064 6.586 33.777 33.777 0 0 1-2.426 6.513 27.001 27.001 0 0 1-3.832 5.791 23.966 23.966 0 0 1-5.177 4.475c-1.947 1.25-4.106 2.1-6.479 2.549-.496.094-.998.161-1.504.201-.506.043-1.014.073-1.521.097.027-5.072.065-10.013.107-14.826-.016-2.017-.027-4.115-.036-6.296-.01-2.181-.032-4.332-.067-6.455a912.578 912.578 0 0 1-.083-6.094 135.462 135.462 0 0 0-.141-5.259 209.603 209.603 0 0 1 4.472-1.67 30.754 30.754 0 0 1 4.71-1.28c1.913-.363 3.593-.368 5.036-.019 1.441.354 2.68.978 3.712 1.885 1.032.906 1.878 2.031 2.539 3.373a17.46 17.46 0 0 1 1.439 4.405c.348 1.844.453 3.851.315 6.024zm-13.726-1.554a1711.16 1711.16 0 0 0-.178 6.03c-.056 2.03-.095 4.146-.118 6.354-.022 2.206.01 4.602.098 7.19.743-.726 1.418-1.653 2.032-2.779.612-1.123 1.15-2.394 1.617-3.803a39.25 39.25 0 0 0 1.176-4.405c.316-1.527.56-3.003.727-4.431.171-1.428.259-2.747.271-3.959.007-1.212-.067-2.243-.229-3.093-.247-1.31-.807-2.269-1.673-2.876-.868-.605-2.081-.761-3.641-.466.008 2.165-.019 4.241-.082 6.238z" style="" fill="#ffffff" data-original="#ffffff"></path><path d="m48.66 169.092 238.555-44.627 18.664 247.48-206.912 41.381z" style="" fill="#00d98d" data-original="#00d98d"></path><path d="m216.365 366.783-.624-13.181c36.595-10.335 63.213-41.754 63.213-78.918 0-45.577-40.024-82.525-89.401-82.525-49.373 0-92.348 37.042-89.4 82.525 4.992 77.062 65.502 81.877 78.881 81.936a97.55 97.55 0 0 0 10.52.588c.479 0 .947-.027 1.424-.034l7.236 15.611s-44.942-4.731-46.322 29.957l117.891-23.578c-.002 0-19.606-22.883-53.418-12.381z" style="" fill="#000355" data-original="#000355"></path><path d="m165.492 303.202 23.989 5.125s-12.36 29.174-18.865 27.794c-6.505-1.38-5.124-32.919-5.124-32.919z" style="" fill="#ffffff" data-original="#ffffff"></path><path d="m158.889 309.904 16.141 7.597-16.141-2.275z" style="" fill="#000355" data-original="#000355"></path><path d="M188.04 274.983c0 7.023-2.913 12.714-6.505 12.714s-6.505-5.692-6.505-12.714 2.913-12.714 6.505-12.714 6.505 5.691 6.505 12.714zM220.368 271.284c0 7.022-2.915 12.714-6.505 12.714-3.594 0-6.505-5.691-6.505-12.714s2.911-12.714 6.505-12.714c3.59 0 6.505 5.692 6.505 12.714zM172.249 259.852l-6.822-1.949c1.611-5.73 8.617-15.467 23.563-11.312l-1.9 6.837c-11.345-3.152-14.353 4.798-14.841 6.424zM220.827 250.361c-1.522-3.234-3.471-5.17-5.956-5.919-4.486-1.348-9.445 1.546-9.495 1.576l-3.682-6.066c.31-.188 7.673-4.579 15.224-2.304 4.459 1.343 7.934 4.604 10.329 9.691l-6.42 3.022z" style="" fill="#ffffff" data-original="#ffffff"></path></g></svg>