<svg version="1.1" xmlns="http://www.w3.org/2000/svg" xmlns:xlink="http://www.w3.org/1999/xlink" width="1560" height="804"><defs/><g><path fill="none" stroke="#72e3ad" paint-order="fill stroke markers" d=" M 20 437.8346864790635 L 21 437.42349408746173 L 22 436.76644753527 L 23 435.86810700585585 L 24 434.73470736572455 L 25 433.37411489188554 L 26 431.79577267653457 L 27 430.01063508796517 L 28 428.0310917425797 L 29 425.8708815156661 L 30 423.5449971877424 L 31 421.06958138826417 L 32 418.4618145588892 L 33 415.73979571388395 L 34 412.9224168252428 L 35 410.0292317043437 L 36 407.0803202901552 L 37 404.09614928589406 L 38 401.0974301113739 L 39 398.1049751569161 L 40 395.13955333648255 L 41 392.2217459425527 L 42 389.3718038031737 L 43 386.6095067325751 L 44 383.9540262508196 L 45 381.42379252527564 L 46 379.03636645739334 L 47 376.8083178025571 L 48 374.7551101689146 L 49 372.8909936933393 L 50 371.2289061394018 L 51 369.780383103771 L 52 368.5554779542526 L 53 367.5626920551273 L 54 366.8089157640565 L 55 366.2993806100603 L 56 366.0376229844746 L 57 366.0254595968864 L 58 366.26297486639453 L 59 366.74852033570477 L 60 367.478726112127 L 61 368.4485242560679 L 62 369.65118395469375 L 63 371.0783582366427 L 64 372.72014190356714 L 65 374.5651402764355 L 66 376.6005482794659 L 67 378.8122393128145 L 68 381.18486329720486 L 69 383.7019532100267 L 70 386.3460393734972 L 71 389.0987707016778 L 72 391.94104206483865 L 73 394.8531268872098 L 74 397.8148140578317 L 75 400.80554820428796 L 76 403.80457235575824 L 77 406.791072005251 L 78 409.7443195711614 L 79 412.64381825552977 L 80 415.4694443005639 L 81 418.2015866561022 L 82 420.82128308866845 L 83 423.31035178746106 L 84 425.65151755387643 L 85 427.82853169875693 L 86 429.8262848152254 L 87 431.6309116444142 L 88 433.229887306277 L 89 434.6121142275993 L 90 435.7679991638906 L 91 436.68951978059386 L 92 437.37028033150943 L 93 437.80555604800236 L 94 437.992325930912 L 95 437.9292937175751 L 96 437.61689687844176 L 97 437.05730358084367 L 98 436.25439764098803 L 99 435.21375156861626 L 100 433.942587891409 L 101 432.44972902756314 L 102 430.74553605444567 L 103 428.84183679829675 L 104 426.75184374407024 L 105 424.4900623351509 L 106 422.07219029939023 L 107 419.51500870017793 L 108 416.83626546870323 L 109 414.0545522257415 L 110 411.18917524787463 L 111 408.2600214736956 L 112 405.287420479971 L 113 402.2920033857055 L 114 399.29455966337486 L 115 396.31589285111824 L 116 393.37667616730863 L 117 390.49730902959817 L 118 387.69777547425736 L 119 384.99750545843824 L 120 382.4152400079827 L 121 379.9689011467084 L 122 377.6754675099182 L 123 375.55085650542736 L 124 373.6098138399639 L 125 371.8658111776728 L 126 370.33095264101985 L 127 369.0158908030184 L 128 367.9297527538281 L 129 367.08007675485555 L 130 366.47275992000453 L 131 366.11201728718953 L 132 366.0003525641747 L 133 366.1385407517738 L 134 366.52562276501396 L 135 367.1589120895946 L 136 368.0340134274426 L 137 369.1448532019559 L 138 370.48372171121656 L 139 372.04132663661045 L 140 373.8068575354828 L 141 375.76806087022186 L 142 377.91132505303756 L 143 380.22177491618686 L 144 382.6833749519843 L 145 385.2790406060657 L 146 387.99075685148347 L 147 390.7997032206794 L 148 393.6863844275579 L 149 396.63076567308826 L 150 399.6124116953568 L 151 402.610628599002 L 152 405.60460747967664 L 153 408.57356884672083 L 154 411.49690684169167 L 155 414.3543322518113 L 156 417.12601332575906 L 157 419.7927134144857 L 158 422.33592448176415 L 159 424.7379955578566 L 160 426.982255244774 L 161 429.05312742289055 L 162 430.93623935585833 L 163 432.6185214435292 L 164 434.08829793055486 L 165 435.3353679411106 L 166 436.3510762773243 L 167 437.1283734900427 L 168 437.66186480501534 L 169 437.9478475649296 L 170 437.9843369274316 L 171 437.7710796407795 L 172 437.3095558015177 L 173 436.6029685819765 L 174 435.6562219988886 L 175 434.4758868774218 L 176 433.0701552468487 L 177 431.44878348436896 L 178 429.6230246016897 L 179 427.6055501443233 L 180 425.4103622456562 L 181 423.05269644616993 L 182 420.54891595229054 L 183 417.9163980687554 L 184 415.1734135927055 L 185 412.3390000065588 L 186 409.43282934976065 L 187 406.4750716864385 L 188 403.486255116552 L 189 400.48712330212174 L 190 397.4984914973663 L 191 394.5411020819576 L 192 391.63548060005763 L 193 388.8017933042857 L 194 386.05970719332214 L 195 383.4282535145481 L 196 380.9256956790693 L 197 378.56940250585234 L 198 376.3757276747116 L 199 374.35989622479417 L 200 372.535898886314 L 201 370.9163949789154 L 202 369.5126245505943 L 203 368.33433036697 L 204 367.38969029233596 L 205 366.6852605317925 L 206 366.2259301283867 L 207 366.01488703106816 L 208 366.0535959689629 L 209 366.3417882855288 L 210 366.8774638031463 L 211 367.6569047052046 L 212 368.6747013393349 L 213 369.92378976270527 L 214 371.39550076879783 L 215 373.07962005540014 L 216 374.96445911621964 L 217 377.03693636410406 L 218 379.2826679228367 L 219 381.6860674573732 L 220 384.23045434965644 L 221 386.89816946922144 L 222 389.67069773509394 L 223 392.52879661835146 L 224 395.4526296934825 L 225 398.42190431164147 L 226 401.41601244028925 L 227 404.41417369173007 L 228 407.3955795478663 L 229 410.33953778019213 L 230 413.2256160626861 L 231 416.0337837808696 L 232 418.7445510528175 L 233 421.33910399725215 L 234 423.7994353099056 L 235 426.10846924189366 L 236 428.2501801126971 L 237 430.2097035352208 L 238 431.97343958098213 L 239 433.5291471694157 L 240 434.8660290261946 L 241 435.9748066209205 L 242 436.84778456408276 L 243 437.4789040163443 L 244 437.8637847394717 L 245 437.99975549705675 L 246 437.88587259403675 L 247 437.5229264263411 L 248 436.91343599520593 L 249 436.06163142423134 L 250 434.97342460051874 L 251 433.65636814365246 L 252 432.11960298729804 L 253 430.37379493722284 L 254 428.43106064605405 L 255 426.30488351854086 L 256 424.01002013097286 L 257 421.56239781424586 L 258 418.9790041113911 L 259 416.2777688767791 L 260 413.47743983528187 L 261 410.597452465065 L 262 407.65779510707694 L 263 404.67887023743657 L 264 401.6813528655455 L 265 398.686047040702 L 266 395.71374146312456 L 267 392.78506520150404 L 268 389.9203445184659 L 269 387.139461797637 L 270 384.46171755142166 L 271 381.9056964672111 L 272 379.48913842172533 L 273 377.2288153587013 L 274 375.1404148844475 L 275 373.2384313891646 L 276 371.53606544969387 L 277 370.0451322118827 L 278 368.7759793884318 L 279 367.73741544135527 L 280 366.936648447496 L 281 366.3792360713976 L 282 366.06904699274173 L 283 366.0082340560606 L 284 366.1972193290775 L 285 366.6346911733768 L 286 367.317613347734 L 287 368.24124608092524 L 288 369.39917896776154 L 289 370.78337546003536 L 290 372.38422864359364 L 291 374.19062791442025 L 292 376.1900360909678 L 293 378.36857642754586 L 294 380.71112892485553 L 295 383.2014352692353 L 296 385.8222116722933 L 297 388.5552688277719 L 298 391.381638153093 L 299 394.2817034394131 L 300 397.23533699648016 L 301 400.2220393473916 L 302 403.22108150370826 L 303 406.2116488334771 L 304 409.1729855236569 L 305 412.0845386343151 L 306 414.9261007447981 L 307 417.677950201852 L 308 420.32098799630927 L 309 422.836870318359 L 310 425.2081358714138 L 311 427.41832706095624 L 312 429.4521042172657 L 313 431.2953520592704 L 314 432.9352776606194 L 315 434.3604992380488 L 316 435.56112514581343 L 317 436.5288225279277 L 318 437.25687515174104 L 319 437.7402300214578 L 320 437.9755324480835 L 321 437.96114933239767 L 322 437.6971804993589 L 323 437.1854580052773 L 324 436.4295334225621 L 325 435.4346531902939 L 326 434.20772220169937 L 327 432.7572558812468 L 328 431.09332108396745 L 329 429.2274662271871 L 330 427.1726411395835 L 331 424.94310718385066 L 332 422.55433827675796 L 333 420.02291349356693 L 334 417.36640200217585 L 335 414.6032411255996 L 336 411.7526083790833 L 337 408.83428836996427 L 338 405.8685354840579 L 339 402.8759333115793 L 340 399.87725178824616 L 341 396.8933030430645 L 342 393.94479695327533 L 343 391.05219740897104 L 344 388.23558028496865 L 345 385.51449410567477 L 346 382.9078243699859 L 347 380.43366247787 L 348 378.1091801683332 L 349 375.95051034022515 L 350 373.972635083039 L 351 372.1892816948192 L 352 370.6128274088564 L 353 369.2542134904088 L 354 368.12286929965364 L 355 367.226646847905 L 356 366.5717663013054 L 357 366.1627728102196 L 358 366.00250496395194 L 359 366.0920750897255 L 360 366.430861532657 L 361 367.01651297030645 L 362 367.8449647318585 L 363 368.9104670086712 L 364 370.2056247604015 L 365 371.7214490397396 L 366 373.44741937953773 L 367 375.37155680934086 L 368 377.4805069945513 L 369 379.75963292120775 L 370 382.19311648310673 L 371 384.7640682662074 L 372 387.45464476836963 L 373 390.2461722408717 L 374 393.119276292192 L 375 396.05401635455115 L 376 399.0300240799597 L 377 402.02664470524184 L 378 405.0230804049029 L 379 407.9985346369112 L 380 410.9323564795713 L 381 413.8041839577297 L 382 416.5940853635699 L 383 419.28269759116654 L 384 421.85136052470085 L 385 424.2822465476257 L 386 426.5584842739284 L 387 428.6642756427483 L 388 430.5850055636573 L 389 432.30734335162305 L 390 433.8193352476499 L 391 435.11048738296523 L 392 436.1718386109458 L 393 436.99602270129844 L 394 437.5773194648399 L 395 437.91169445405063 L 396 437.9968269638616 L 397 437.8321261383373 L 398 437.418735071468 L 399 436.75952287360997 L 400 435.8590647586355 L 401 434.723610289997 L 402 433.3610400060903 L 403 431.7808107259568 L 404 429.99388991492475 L 405 428.0126795657209 L 406 425.85093012335085 L 407 423.52364505114485 L 408 421.04697670032084 L 409 418.43811420577765 L 410 415.71516418616545 L 411 412.89702507622735 L 412 410.00325596360153 L 413 407.0539408404085 L 414 404.06954921177726 L 415 401.07079402874894 L 416 398.0784879315596 L 417 395.1133988010376 L 418 392.1961056206528 L 419 389.34685564959125 L 420 386.5854238981386 L 421 383.9309758806737 L 422 381.40193459882266 L 423 379.0158526779672 L 424 376.7892905445382 L 425 374.73770148959073 L 426 372.87532441637137 L 427 371.2150850162564 L 428 369.76850605893907 L 429 368.5456274194918 L 430 367.5549363973512 L 431 366.8033088108386 L 432 366.2959612760478 L 433 366.03641500130425 L 434 366.0264713484768 L 435 366.26619933075796 L 436 366.75393513368306 L 437 367.4862936627121 L 438 368.4581920372306 L 439 369.6628848679084 L 440 371.09201107258 L 441 372.7356519057215 L 442 374.58239979877544 L 443 376.61943753354325 L 444 378.832627199148 L 445 381.206608315166 L 446 383.7249044399142 L 447 386.3700375239849 L 448 389.1236492153636 L 449 391.9666282742244 L 450 394.87924321308736 L 451 397.8412792417584 L 452 400.832178566597 L 453 403.83118307037506 L 454 406.817478382464 L 455 409.7703383394475 L 456 412.6692688335379 L 457 415.49415005042533 L 458 418.2253761093733 L 459 420.8439911363951 L 460 423.33182082610483 L 461 425.6715985791503 L 462 427.8470853397792 L 463 429.8431823018123 L 464 431.64603570080027 L 465 433.2431329650592 L 466 434.623389558255 L 467 435.77722591081493 L 468 436.69663390622713 L 469 437.3752324607849 L 470 437.80831181103025 L 471 437.9928662015213 L 472 437.92761474605726 L 473 437.6130103175754 L 474 437.0512364050192 L 475 436.2461919589939 L 476 435.20346433138616 L 477 433.9302904967577 L 478 432.43550682465553 L 479 430.72948775143726 L 480 428.82407377725656 L 481 426.7324892879418 L 482 424.46925077211665 L 483 422.0500660705756 L 484 419.491725357169 L 485 416.8119846078334 L 486 414.02944236654315 L 487 411.1634106634824 L 488 408.2337809813166 L 489 405.2608861998163 L 490 402.2653594769988 L 491 399.26799104620915 L 492 396.2895839230305 L 493 393.3508095234831 L 494 390.472064195578 L 495 387.67332765995985 L 496 384.974024342124 L 497 382.3928885586161 L 498 379.9478344928831 L 499 377.65583186319856 L 500 375.53278814557854 L 501 373.593438169111 L 502 371.85124184995726 L 503 370.3182907737915 L 504 369.00522427503716 L 505 367.9211555953485 L 506 367.07360863382513 L 507 366.46846572794243 L 508 366.10992682762054 L 509 366.00048034578003 L 510 366.1408858876946 L 511 366.5301689790066 L 512 367.1656278289944 L 513 368.0428520821533 L 514 369.1557534279433 L 515 370.49660785626213 L 516 372.0561092653705 L 517 373.8234340502074 L 518 375.7863162228273 L 519 377.93113254358906 L 520 380.24299707225026 L 521 382.7058644827429 L 522 385.3026414245822 L 523 388.01530515800937 L 524 390.8250286394949 L 525 393.71231118945286 L 526 396.6571138352748 L 527 399.6389983903489 L 528 402.6372693037949 L 529 405.6311172964142 L 530 408.59976378596554 L 531 411.52260509939066 L 532 414.3793554710934 L 533 417.15018783480724 L 534 419.8158714318946 L 535 422.3579052810138 L 536 424.75864658282296 L 537 427.00143316853433 L 538 429.0706991424727 L 539 430.9520829160321 L 540 432.63252688322825 L 541 434.1003680460531 L 542 435.3454189606572 L 543 436.3590384425559 L 544 437.134191540136 L 545 437.6654983602207 L 546 437.94927140682375 L 547 437.9835411739445 L 548 437.76806981477966 L 549 437.3043527924817 L 550 436.5956085010065 L 551 435.6467559280866 L 552 434.4643805153571 L 553 433.0566884525827 L 554 431.433449723199 L 555 429.60593029645935 L 556 427.58681393680337 L 557 425.3901141731199 L 558 423.03107703887827 L 559 420.5260752581529 L 560 417.8924946119332 L 561 415.148613273386 L 562 412.3134749495378 L 563 409.40675670982324 L 564 406.4486324188281 L 565 403.4596327210646 L 566 400.46050254953957 L 567 397.47205714706837 L 568 394.51503759961184 L 569 391.6099668842908 L 570 388.7770074311691 L 571 386.03582118738893 L 572 383.4054331548693 L 573 380.9040993486761 L 574 378.54918009249064 L 575 376.35701953055707 L 576 374.342832192348 L 577 372.52059739724086 L 578 370.90296223207724 L 579 369.50115377498435 L 580 368.32490117466455 L 581 367.3823681259521 L 582 366.6800962102885 L 583 366.222959494357 L 584 366.01413070198004 L 585 366.05505919406295 L 586 366.3454609094106 L 587 366.8833203362334 L 588 367.664904500659 L 589 368.6847888751634 L 590 369.93589502710586 L 591 371.4095397460716 L 592 373.0954953090557 L 593 374.9820604652242 L 594 377.05614164758697 L 595 379.3033438479375 L 596 381.70807052435134 L 597 384.2536318478408 L 598 386.922360536887 L 599 389.69573447591114 L 600 392.55450526665857 L 601 395.4788318202929 L 602 398.44841806301713 L 603 401.44265379948524 L 604 404.44075775634815 L 605 407.4219218131572 L 606 410.3654554195974 L 607 413.25092919673176 L 608 416.0583167256067 L 609 418.76813353914395 L 610 421.36157235265256 L 611 423.8206335944085 L 612 426.1282503303615 L 613 428.2684067159372 L 614 430.2262491528312 L 615 431.98818937931844 L 616 433.5419987785852 L 617 434.876893250547 L 618 435.9836080581043 L 619 436.85446212836916 L 620 437.4834113625885 L 621 437.86609058476796 L 622 437.999843837855 L 623 437.8837428172142 L 624 437.5185933134575 L 625 436.9069296199131 L 626 436.05299694354954 L 627 434.9627219414272 L 628 433.6436715871711 L 629 432.10500065294525 L 630 430.3573881714282 L 631 428.41296331877146 L 632 426.2852212329419 L 633 423.98892935170744 L 634 421.5400249203194 L 635 418.95550438023184 L 636 416.253305406546 L 637 413.4521824128947 L 638 410.57157638780984 L 639 407.6314799659684 L 640 404.65229867078017 L 641 401.6547092913493 L 642 398.65951637673686 L 643 395.68750784351647 L 644 392.75931069876435 L 645 389.8952478798303 L 646 387.115197204484 L 647 384.438453410379 L 648 381.8835942413418 L 649 379.468351509906 L 650 377.2094880309676 L 651 375.1226812806987 L 652 373.222414588176 L 653 371.52187661489717 L 654 370.0328698198441 L 655 368.76572854538335 L 656 367.72924729252077 L 657 366.9306196833127 L 658 366.3753885340609 L 659 366.06740738580214 L 660 366.00881375908966 L 661 366.20001431868894 L 662 366.6396820511503 L 663 367.3247654748488 L 664 368.2505098185681 L 665 369.4104900216412 L 666 370.79665532661267 L 667 372.3993851549294 L 668 374.20755587785993 L 669 376.2086180192239 L 670 378.3886833541091 L 671 380.73262129907783 L 672 383.22416392487116 L 673 385.84601886277653 L 674 388.5799893210443 L 675 391.4071003783858 L 676 394.30773067802045 L 677 397.2617486082628 L 678 400.24865202449683 L 679 403.247710542804 L 680 406.23810941767186 L 681 409.1990940052086 L 682 412.1101138092238 L 683 414.9509651104395 L 684 417.7019311889217 L 685 420.3439191665265 L 686 422.85859251962006 L 687 425.2284983423754 L 688 427.4371884773833 L 689 429.46933367288176 L 690 431.31082997430366 L 691 432.94889661173653 L 692 434.3721647039192 L 693 435.57075616312756 L 694 436.5363522533168 L 695 437.2622513256987 L 696 437.74341533104337 L 697 437.9765047858896 L 698 437.959901949985 L 699 437.6937220540936 L 700 437.1798125002449 L 701 436.42174003997593 L 702 435.42476601955366 L 703 434.19580986398785 L 704 432.7434010532697 L 705 431.0776199241412 L 706 429.21002770825896 L 707 427.1535862923143 L 708 424.92256825700895 L 709 422.532457819258 L 710 419.9998433651181 L 711 417.34230231931105 L 712 414.57827915039894 L 713 411.72695735830354 L 714 408.80812633263207 L 715 405.8420440058731 L 716 402.849296254702 L 717 399.85065402521406 L 718 396.8669291736998 L 719 393.9188300234826 L 720 391.0268176403202 L 721 388.21096382388134 L 722 385.49081180089235 L 723 382.88524058680616 L 724 380.41233395738254 L 725 378.089254939569 L 726 375.9321266927718 L 727 373.9559206072524 L 728 372.1743523962916 L 729 370.59978690328836 L 730 369.2431522844721 L 731 368.11386416283625 L 732 367.2197602796979 L 733 366.56704609742974 L 734 366.16025173090395 L 735 366.0022005065622 L 736 366.0939893673259 L 737 366.4349812593443 L 738 367.0228095534201 L 739 367.8533944704254 L 740 368.92097139670966 L 741 370.2181308929774 L 742 371.73587011895773 L 743 373.46365531695625 L 744 375.38949492062795 L 745 377.5000227815622 L 746 379.78059093605515 L 747 382.21537126822705 L 748 384.787465363898 L 749 387.47902179279123 L 750 390.2713600050758 L 751 393.1450999823498 L 752 396.08029674323654 L 753 399.0565787700642 L 754 402.0532893958879 L 755 405.04963017057065 L 756 408.02480521090104 L 757 410.9581655328926 L 758 413.82935236454233 L 759 416.61843844439386 L 760 419.3060663252318 L 761 421.8735827230239 L 762 424.3031679786702 L 763 426.57795973403813 L 764 428.68216996392147 L 765 430.60119455167154 L 766 432.32171464799535 L 767 433.8317891094525 L 768 435.12093737508445 L 769 436.1802122059785 L 770 437.0022617829228 L 771 437.5813807311679 L 772 437.91354971816145 L 773 437.9964633494308 L 774 437.8295461690042 L 775 437.4139566533204 L 776 436.7525791709082 L 777 435.8500039636386 L 778 434.7124952884875 L 779 433.3479479409203 L 780 431.7658324616437 L 781 429.97712940701257 L 782 427.99425313928435 L 783 425.8309656656505 L 784 423.5022811240338 L 785 421.0243615785668 L 786 418.4144048479736 L 787 415.6905251453688 L 788 412.8716273578919 L 789 409.9772758387276 L 790 407.0275586221457 L 791 404.04294800397463 L 792 401.0441584551372 L 793 398.052002854382 L 794 395.0872480380281 L 795 392.170470669263 L 796 389.3219144273195 L 797 386.56134950770695 L 798 383.90793540862245 L 799 381.3800879558566 L 800 378.9953514891081 L 801 376.77027709678293 L 802 374.72030774437764 L 803 372.85967109371217 L 804 371.2012807568884 L 805 369.75664667031094 L 806 368.5357952108198 L 807 367.5471996083581 L 808 366.7977211381404 L 809 366.2925615004767 L 810 366.03522671875317 L 811 366.0275028061334 L 812 366.2694433698662 L 813 366.75936923922757 L 814 367.4938801196823 L 815 368.46787819237875 L 816 369.6746034951855 L 817 371.10568083971367 L 818 372.75117793869646 L 819 374.5996743402992 L 820 376.63834069092854 L 821 378.8530277764186 L 822 381.22836472361246 L 823 383.74786568078076 L 824 386.394044236465 L 825 389.148534782631 L 826 391.9922199798262 L 827 394.9053634396696 L 828 397.86774670380527 L 829 400.85880956863116 L 830 403.8577927818818 L 831 406.84388212069337 L 832 409.7963528511926 L 833 412.69471356698966 L 834 415.5188484082785 L 835 418.2491566744883 L 836 420.8666888615055 L 837 423.3532781793151 L 838 425.69166663727566 L 839 427.86562482193546 L 840 429.860064536084 L 841 431.6611435172798 L 842 433.25636150905535 L 843 434.63464701802894 L 844 435.7864341547935 L 845 436.70372902526896 L 846 437.38016521173694 L 847 437.8110479584966 L 848 437.99338675547136 L 849 437.92591609362455 L 850 437.60910424813244 L 851 437.0451500283542 L 852 436.2379675171575 L 853 435.1931589055131 L 854 433.91797561089976 L 855 432.42126794937434 L 856 430.7134237106014 L 857 428.8062960621622 L 858 426.71312128351593 L 859 424.4484269005722 L 860 422.02793085846434 L 861 419.46843243230626 L 862 416.7876956330542 L 863 414.0043259176939 L 864 411.1376410594333 L 865 408.2075370741128 L 866 405.23435013336905 L 867 402.23871542293006 L 868 399.2414239256202 L 869 396.26327812307153 L 870 393.32494761762837 L 871 390.44682567648647 L 872 387.64888769372055 L 873 384.95055255252913 L 874 382.37054784989834 L 875 379.9267799190912 L 876 377.6362095520569 L 877 375.5147342842971 L 878 373.57707805918864 L 879 371.8366890375365 L 880 370.30564626159844 L 881 368.9945758213805 L 882 367.9125771050395 L 883 367.0671596452459 L 884 366.46419099982484 L 885 366.10785602840144 L 886 366.0006278476893 L 887 366.14325066700616 L 888 366.5347346231431 L 889 367.1723626504379 L 890 368.05170933836996 L 891 369.1666716457964 L 892 370.5095112586621 L 893 372.07090829720016 L 894 373.84002599987247 L 895 375.804585935119 L 896 377.95095321891057 L 897 380.2642311466589 L 898 382.7283645827041 L 899 385.32625138980393 L 900 388.03986112526053 L 901 390.8503601798874 L 902 393.73824249129024 L 903 396.68346492425957 L 904 399.6655863786824 L 905 402.66390965949597 L 906 405.657625124049 L 907 408.6259551099023 L 908 411.5482981406684 L 909 414.4043719090444 L 910 417.1743540446805 L 911 419.83901968988454 L 912 422.3798749283345 L 913 424.77928514074995 L 914 427.02059739667146 L 915 429.0882560329008 L 916 430.96791061644217 L 917 432.6465155426274 L 918 434.1124205771773 L 919 435.35545171379897 L 920 436.36698178612863 L 921 437.13999034394647 L 922 437.6691123780967 L 923 437.95067555593965 L 924 437.98272570890634 L 925 437.7650403952627 L 926 437.29913044394965 L 927 436.58822946878615 L 928 435.63727142580933 L 929 434.4528563695148 L 930 433.0432046456638 L 931 431.41809983857564 L 932 429.58882086887894 L 933 427.56806371299245 L 934 425.3698532876304 L 935 423.0094461108986 L 936 420.50322441555124 L 937 417.8685824493052 L 938 415.1238057513411 L 939 412.2879442428622 L 940 409.38068001251236 L 941 406.42219071428536 L 942 403.4330095260001 L 943 400.43388264028414 L 944 397.44562527714805 L 945 394.48897721748017 L 946 391.5844588601169 L 947 388.75222880152216 L 948 386.0119439265297 L 949 383.38262298117394 L 950 380.8825145744806 L 951 378.52897052533643 L 952 376.3383254334613 L 953 374.3257833103193 L 954 372.5053120567939 L 955 370.8895465199952 L 956 369.4897008020321 L 957 368.3154904293604 L 958 367.375064922883 L 959 366.67495123679925 L 960 366.2200084587585 L 961 366.0133940857183 L 962 366.056542109569 L 963 366.34915306461824 L 964 366.88919610601033 L 965 367.6729231046566 L 966 368.69489466084895 L 967 369.94801785601567 L 968 371.4235954806016 L 969 373.11138639641183 L 970 374.9996766144812 L 971 377.07536059515417 L 972 379.3240322061197 L 973 381.73008470711716 L 974 384.2768190673709 L 975 386.9465598639858 L 976 389.72077795692536 L 977 392.5802190891467 L 978 395.5050375193569 L 979 398.47493375992644 L 980 401.46929546399195 L 981 404.4673404839348 L 982 407.4482611083544 L 983 410.3913684764605 L 984 413.27623616759104 L 985 416.0828419692888 L 986 418.7917068399955 L 987 421.3840301019088 L 988 423.8418199257094 L 989 426.14801820152996 L 990 428.286618929514 L 991 430.24277930828504 L 992 432.00292275031876 L 993 433.5548331092517 L 994 434.88773946515005 L 995 435.99239087928754 L 996 436.8611205996067 L 997 437.48789927124955 L 998 437.8683767828519 L 999 437.99991245817176 L 1000 437.8815933835096 L 1001 437.51424074371823 L 1002 436.90040412283014 L 1003 436.0443438088563 L 1004 434.95200122556986 L 1005 433.6309576964913 L 1006 432.09038182726795 L 1007 430.3409658716398 L 1008 428.39485152263853 L 1009 426.265545644056 L 1010 423.9678265270487 L 1011 421.5176413224939 L 1012 418.93199536095705 L 1013 416.2288341284444 L 1014 413.4269187170761 L 1015 410.54569561510056 L 1016 407.60516173997155 L 1017 404.6257256512119 L 1018 401.62806590630123 L 1019 398.63298754266697 L 1020 395.6612776818509 L 1021 392.73356125801456 L 1022 389.8701578720995 L 1023 387.09094076512974 L 1024 384.4151988894379 L 1025 381.86150303510937 L 1026 379.4475769407779 L 1027 377.19017428331586 L 1028 375.10496240017113 L 1029 373.2064135513625 L 1030 371.5077044758192 L 1031 370.0206249391926 L 1032 368.75549590785386 L 1033 367.7210979169828 L 1034 366.92461012990907 L 1035 366.3715605116559 L 1036 366.0657874625043 L 1037 366.0094131778577 L 1038 366.2028289193009 L 1039 366.64469229907724 L 1040 367.33193659683275 L 1041 368.2597920439632 L 1042 369.4218189278435 L 1043 370.8099522861804 L 1044 372.41455788129036 L 1045 374.22449906582074 L 1046 376.2272140758322 L 1047 378.4088032147987 L 1048 380.7541253234326 L 1049 383.24690286578874 L 1050 385.8698349023061 L 1051 388.6047171657118 L 1052 391.4325684064006 L 1053 394.333762130403 L 1054 397.28816281562894 L 1055 400.27526566097936 L 1056 403.27433889841177 L 1057 406.2645676802577 L 1058 409.22519854314334 L 1059 412.1356834458775 L 1060 414.97582238162596 L 1061 417.72590357457517 L 1062 420.3668402880635 L 1063 422.8803032946791 L 1064 425.2488480889161 L 1065 427.45603595948296 L 1066 429.4865480809746 L 1067 431.326291833054 L 1068 432.9624986092483 L 1069 434.38381243652725 L 1070 435.58036879059875 L 1071 436.54386305991557 L 1072 437.2676081832232 L 1073 437.74658106061725 L 1074 437.977457415999 L 1075 437.9586348689707 L 1076 437.6902440560383 L 1077 437.17414772393886 L 1078 436.41392780138324 L 1079 435.4148605389428 L 1080 434.1838798896201 L 1081 432.7295293842563 L 1082 431.0619028357827 L 1083 429.1925742838538 L 1084 427.1345176660732 L 1085 424.90201677333255 L 1086 422.5105661142107 L 1087 419.9767633764716 L 1088 417.3181942320322 L 1089 414.5533102848985 L 1090 411.70130100915947 L 1091 408.7819605658522 L 1092 405.81555042304166 L 1093 402.82265873258564 L 1094 399.8240574395797 L 1095 396.8405581161982 L 1096 393.8928675205025 L 1097 391.0014438827076 L 1098 388.1863549163389 L 1099 385.46713853973637 L 1100 382.86266727456785 L 1101 380.39101726247895 L 1102 378.0693428089563 L 1103 375.91375732513075 L 1104 373.93922149383104 L 1105 372.15943943606084 L 1106 370.58676359855383 L 1107 369.2321090225247 L 1108 368.1048775886248 L 1109 367.212892763881 L 1110 366.56234530349695 L 1111 366.15775028437054 L 1112 366.0019157685341 L 1113 366.0959233140066 L 1114 366.4391204683188 L 1115 367.0291252968123 L 1116 367.8618429142819 L 1117 368.931493905226 L 1118 370.2306544354557 L 1119 371.75030777667035 L 1120 373.47990688639976 L 1121 375.4074476089777 L 1122 377.5195519895021 L 1123 379.80156112255105 L 1124 382.2376368912391 L 1125 384.81087189050356 L 1126 387.5034067717107 L 1127 390.2965541941531 L 1128 393.17092852316443 L 1129 396.10658037469705 L 1130 399.083135072556 L 1131 402.0799340573422 L 1132 405.0761782656707 L 1133 408.05107248454175 L 1134 410.9839696789888 L 1135 413.8545142913122 L 1136 416.64278351733196 L 1137 419.32942557914583 L 1138 421.89579403472686 L 1139 424.3240771921839 L 1140 426.59742173050034 L 1141 428.70004966877457 L 1142 430.6173678721366 L 1143 432.33606933432844 L 1144 433.8442255340069 L 1145 435.1313692237686 L 1146 436.1885670773121 L 1147 437.00848169053455 L 1148 437.5854225062458 L 1149 437.91538530906206 L 1150 437.99608001637034 L 1151 437.82694657247754 L 1152 437.4091588356364 L 1153 436.7456164309685 L 1154 435.8409246258284 L 1155 434.7013623672846 L 1156 433.33483870354735 L 1157 431.7508378918001 L 1158 429.9603535734098 L 1159 427.9758124733645 L 1160 425.8109881535012 L 1161 423.48090541811206 L 1162 421.00173603539105 L 1163 418.3906864984646 L 1164 415.6658786049908 L 1165 412.8462236841498 L 1166 409.9512913439534 L 1167 407.00117364981855 L 1168 404.01634567705884 L 1169 401.017523405129 L 1170 398.0255199398915 L 1171 395.0611010617799 L 1172 392.1448411024256 L 1173 389.29698015002066 L 1174 386.5372835744687 L 1175 383.8849048472869 L 1176 381.3582526083448 L 1177 378.97486290204705 L 1178 376.75127746970645 L 1179 374.7029289428032 L 1180 372.8440337339369 L 1181 371.18749336885935 L 1182 369.7448049443831 L 1183 368.52598133362284 L 1184 367.53948169238606 L 1185 366.79215274902276 L 1186 366.28918128520945 L 1187 366.03405813747213 L 1188 366.02855396929124 L 1189 366.2727069819421 L 1190 366.76482264936163 L 1191 367.5014854788817 L 1192 368.47758271620603 L 1193 369.68633983010574 L 1194 371.1193675305556 L 1195 372.76671999398667 L 1196 374.6169638915443 L 1197 376.65725774126685 L 1198 378.8734410334505 L 1199 381.25013251062654 L 1200 383.7708369200487 L 1201 386.41805949778626 L 1202 389.17342738984803 L 1203 392.01781716762537 L 1204 394.93148755264735 L 1205 397.894216429474 L 1206 400.88544119580223 L 1207 403.88440147570117 L 1208 406.87028320547563 L 1209 409.8223630921463 L 1210 412.7201524419461 L 1211 415.5435393605942 L 1212 418.2729283384206 L 1213 420.88937625156535 L 1214 423.37472383533793 L 1215 425.71172171725954 L 1216 427.88415013506943 L 1217 429.8769315087928 L 1218 431.676235085577 L 1219 433.2695729310187 L 1220 434.64588660075447 L 1221 435.7956238907821 L 1222 436.7108051338324 L 1223 437.38507858166344 L 1224 437.8137644889026 L 1225 437.99388759247705 L 1226 437.92419776120744 L 1227 437.6051786722526 L 1228 437.0390444541829 L 1229 436.2297243199839 L 1230 435.1828352966422 L 1231 433.9056432405815 L 1232 432.4070124095192 L 1233 430.69734394073765 L 1234 428.78850366275253 L 1235 426.6937397414019 L 1236 424.42759073192457 L 1237 422.00578467518255 L 1238 419.445129938349 L 1239 416.7633985576708 L 1240 413.97920289295314 L 1241 411.1118664498433 L 1242 408.18128976646 L 1243 405.2078122951662 L 1244 402.21207123809427 L 1245 399.21485831616116 L 1246 396.2369754656522 L 1247 393.29909046391094 L 1248 390.4215934861489 L 1249 387.62445558892824 L 1250 384.9270901025111 L 1251 382.34821789406726 L 1252 379.90573743686684 L 1253 377.61660058724186 L 1254 375.4966949314727 L 1255 373.5607335191594 L 1256 371.8221527483821 L 1257 370.2930191113672 L 1258 368.9839454478819 L 1259 367.9040172876001 L 1260 367.06072979265053 L 1261 366.4599357379936 L 1262 366.1058048906665 L 1263 366.0007950698218 L 1264 366.145635088413 L 1265 366.5393196949226 L 1266 367.1791165502359 L 1267 368.0605851912405 L 1268 369.1776078495344 L 1269 370.5224319113481 L 1270 372.0857237239924 L 1271 373.85663337538926 L 1272 375.8228699970893 L 1273 377.9707870681439 L 1274 380.28547712778135 L 1275 382.7508752395427 L 1276 385.34987048879674 L 1277 388.06442473978564 L 1278 390.87569782798073 L 1279 393.7641783188645 L 1280 396.7098189256081 L 1281 399.6921756457929 L 1282 402.6905496515111 L 1283 405.68413094806067 L 1284 408.65214280418405 L 1285 411.5739859514497 L 1286 414.42938155196106 L 1287 417.1985119421411 L 1288 419.8621581757745 L 1289 422.40183341169177 L 1290 424.79991122033215 L 1291 427.0397479186868 L 1292 429.10579808455776 L 1293 430.98372244841835 L 1294 432.66048741406337 L 1295 434.1244555173255 L 1296 435.36546619504026 L 1297 436.374906303691 L 1298 437.14576989829766 L 1299 437.67270685666386 L 1300 437.9520600115081 L 1301 437.9818905327638 L 1302 437.76199138388796 L 1303 437.29388875878243 L 1304 436.5808314893574 L 1305 435.6277684972523 L 1306 434.4413144462079 L 1307 433.0297038334782 L 1308 431.4027338389074 L 1309 429.5716963283213 L 1310 427.54929948316146 L 1311 425.3495796002863 L 1312 422.98780367408057 L 1313 420.4803634370028 L 1314 417.8446615939703 L 1315 415.0989910401607 L 1316 412.262407900517 L 1317 409.35459927211247 L 1318 406.3957465872957 L 1319 403.406385545942 L 1320 400.40726358893744 L 1321 397.4191959020852 L 1322 394.462920949838 L 1323 391.55895654150885 L 1324 388.727457428919 L 1325 385.98807542382394 L 1326 383.359823005957 L 1327 380.8609413683074 L 1328 378.50877381546013 L 1329 376.3196453936647 L 1330 374.3087495880478 L 1331 372.49004287334594 L 1332 370.8761478500181 L 1333 369.4782656380116 L 1334 368.30609813621254 L 1335 367.36778068712925 L 1336 366.66982561414324 L 1337 366.2170770232079 L 1338 366.0126771826864 L 1339 366.05804471466865 L 1340 366.35286474912914 L 1341 366.8950911092586 L 1342 367.68096051280463 L 1343 368.7050186908558 L 1344 369.960158242794 L 1345 371.4376679646879 L 1346 373.1272933087637 L 1347 375.0173075543408 L 1348 377.0945931962772 L 1349 379.3447329860504 L 1350 381.75210999361167 L 1351 384.3000159955444 L 1352 386.97076743726194 L 1353 389.7458281644182 L 1354 392.6059380717294 L 1355 395.53124677631956 L 1356 398.5014513878445 L 1357 401.49593741921467 L 1358 404.49392185992855 L 1359 407.47459741902975 L 1360 410.4172769365857 L 1361 413.30153696140144 L 1362 416.10735949848146 L 1363 418.81527094245826 L 1364 421.40647723271906 L 1365 423.86299429220287 L 1366 426.16777284457 L 1367 428.3048167434512 L 1368 430.2592939925272 L 1369 432.01763968591183 L 1370 433.56765015438503 L 1371 434.8985676640623 L 1372 436.0011550796588 L 1373 436.867759974148 L 1374 437.492367739869 L 1375 437.870643332471 L 1376 437.99996135796937 L 1377 437.8794242941002 L 1378 437.5098687195077 L 1379 436.89385950753154 L 1380 436.0356720248917 L 1381 434.9412624588196 L 1382 433.61822647857736 L 1383 432.075746518274 L 1384 430.32452804685397 L 1385 428.37672526757655 L 1386 426.24585676266094 L 1387 423.94671166855716 L 1388 421.4952470330305 L 1389 418.9084770664445 L 1390 416.20435505587994 L 1391 413.4016487616652 L 1392 410.5198101611143 L 1393 407.5788404435038 L 1394 404.5991511932878 L 1395 401.6014227249959 L 1396 398.6064605530252 L 1397 395.6350509924961 L 1398 392.7078168933597 L 1399 389.8450745090183 L 1400 387.0666924928614 L 1401 384.39195400133684 L 1402 381.8394228606157 L 1403 379.4268147257211 L 1404 377.170874126326 L 1405 375.0872582525715 L 1406 373.19042828748934 L 1407 371.49354904022334 L 1408 370.00839757663607 L 1409 368.7452814814485 L 1410 367.7129673192056 L 1411 366.9186197905771 L 1412 366.36775200627955 L 1413 366.06418722373553 L 1414 366.01003231203634 L 1415 366.2056631293716 L 1416 366.649721914413 L 1417 367.3391267097574 L 1418 368.26909275202604 L 1419 369.43316568016274 L 1420 370.8232663314542 L 1421 372.4297468143653 L 1422 374.2414574690213 L 1423 376.24582425060555 L 1424 378.4289359985935 L 1425 380.7756409861403 L 1426 383.2696520795311 L 1427 385.89365977783586 L 1428 388.62945234822877 L 1429 391.45804222318554 L 1430 394.35979778230137 L 1431 397.3145796041092 L 1432 400.3018802422596 L 1433 403.30096655594525 L 1434 406.29102360674125 L 1435 409.25129912316055 L 1436 412.1612475302696 L 1437 415.0006725447412 L 1438 417.74986734567995 L 1439 420.38975134836437 L 1440 422.9020026316433 L 1441 425.26918509988775 L 1442 427.47486949693103 L 1443 429.5037474321144 L 1444 431.34173762705103 L 1445 432.9760836457038 L 1446 434.3954424294925 L 1447 435.589963022961 L 1448 436.55135494360974 L 1449 437.27294572138027 L 1450 437.7497272084453 L 1451 437.9783903378901 L 1452 437.95734809004887 L 1453 437.6867465070983 L 1454 437.1684636794622 L 1455 436.40609671106347 L 1456 435.4049367538877 L 1457 434.17193228513105 L 1458 432.7156408818055 L 1459 431.0461698275022 L 1460 429.1751059635322 L 1461 427.1154352713058 L 1462 424.88145274408 L 1463 422.4886631736077 L 1464 419.9536735402702 L 1465 417.29407775354616 L 1466 414.52833454277567 L 1467 411.67563934570524 L 1468 408.7557910839587 L 1469 405.7890547500761 L 1470 402.79602075982194 L 1471 399.79746204591305 L 1472 396.81418988500525 L 1473 393.8669094585568 L 1474 390.9760761500333 L 1475 388.16175357582165 L 1476 385.4434743351747 L 1477 382.840104445637 L 1478 380.3697124048361 L 1479 378.0494437874026 L 1480 375.8954022473649 L 1481 373.92253775192245 L 1482 372.14454282229593 L 1483 370.5737575017872 L 1484 369.2210837106158 L 1485 368.09590958194195 L 1486 367.20604430421645 L 1487 366.5576639220821 L 1488 366.15526847198953 L 1489 366.0016507500237 L 1490 366.0978769287082 L 1491 366.443279157313 L 1492 367.0354601970233 L 1493 367.87031005880004 L 1494 368.942034528456 L 1495 370.2431953809756 L 1496 371.76476200496876 L 1497 373.4961740789659 L 1498 375.4254148645552 L 1499 377.5390946076732 L 1500 379.82254346920837 L 1501 382.2599133399454 L 1502 384.8342878332025 L 1503 387.5277996917704 L 1504 390.32175479430174 L 1505 393.19676190048756 L 1506 396.13286723453496 L 1507 399.109692972887 L 1508 402.1065786750095 L 1509 405.10272467566045 L 1510 408.0773364434435 L 1511 411.0097689037247 L 1512 413.87966972425613 L 1513 416.6671205690475 L 1514 419.3527753401128 L 1515 421.91799444764285 L 1516 424.34497417671207 L 1517 426.6168702526543 L 1518 428.7179147475134 L 1519 430.6335255161923 L 1520 432.3504074027592 L 1521 433.8566445145008 L 1522 435.14178292330286 L 1523 436.19690322036985 L 1524 437.0146824207267 L 1525 437.58944478785935 L 1526 437.917201225747 L 1527 437.9956769648901 L 1528 437.82432735018136 L 1529 437.4043416210443 L 1530 436.7386346576048 L 1531 435.83182675017883 L 1532 434.690211532487 L 1533 433.3217123011523 L 1534 431.7358270246402 L 1535 429.9435624233062 L 1536 427.95735757806233 L 1537 425.7909975978466 L 1538 423.4595179450898 L 1539 420.9791000831868" stroke-linecap="round" stroke-linejoin="round" stroke-miterlimit="10" stroke-width="29"/></g></svg>